<svg width="8" height="9" viewBox="0 0 8 9" fill="none" xmlns="http://www.w3.org/2000/svg">
<path d="M6.27965 4.53645C6.27601 3.91575 6.55724 3.44795 7.12515 3.10301C6.80752 2.64796 6.32698 2.39767 5.69354 2.34944C5.09377 2.30211 4.43758 2.69892 4.19731 2.69892C3.94339 2.69892 3.36273 2.36582 2.90585 2.36582C1.96297 2.38038 0.960938 3.11758 0.960938 4.61745C0.960938 5.06067 1.04194 5.51846 1.20394 5.9899C1.42055 6.6106 2.20142 8.1314 3.01598 8.10683C3.44191 8.09682 3.74316 7.80467 4.29742 7.80467C4.8353 7.80467 5.1138 8.10683 5.58888 8.10683C6.41071 8.095 7.11696 6.71253 7.32265 6.09001C6.2205 5.57034 6.27965 4.5683 6.27965 4.53645ZM5.32312 1.76059C5.78455 1.2127 5.74269 0.713961 5.72903 0.534668C5.3213 0.558331 4.84986 0.812253 4.58138 1.12442C4.28559 1.45935 4.11176 1.87345 4.14907 2.34034C4.58957 2.37401 4.99184 2.14739 5.32312 1.76059Z" fill="#313131"/>
</svg>
